<?xml version="1.0" encoding="UTF-8" standalone="no"?>
<!-- Created with Inkscape (http://www.inkscape.org/) -->

<svg
   xmlns:dc="http://purl.org/dc/elements/1.1/"
   xmlns:cc="http://creativecommons.org/ns#"
   xmlns:rdf="http://www.w3.org/1999/02/22-rdf-syntax-ns#"
   xmlns:svg="http://www.w3.org/2000/svg"
   xmlns="http://www.w3.org/2000/svg"
   xmlns:sodipodi="http://sodipodi.sourceforge.net/DTD/sodipodi-0.dtd"
   xmlns:inkscape="http://www.inkscape.org/namespaces/inkscape"
   version="1.1"
   id="svg2"
   inkscape:version="0.48.3.1 r9886"
   width="161"
   height="60"
   sodipodi:docname="404.svg">
  <metadata
     id="metadata23">
    <rdf:RDF>
      <cc:Work
         rdf:about="">
        <dc:format>image/svg+xml</dc:format>
        <dc:type
           rdf:resource="http://purl.org/dc/dcmitype/StillImage" />
        <dc:title />
      </cc:Work>
    </rdf:RDF>
  </metadata>
  <sodipodi:namedview
     pagecolor="#ffffff"
     bordercolor="#666666"
     borderopacity="1"
     objecttolerance="10"
     gridtolerance="10"
     guidetolerance="10"
     inkscape:pageopacity="0"
     inkscape:pageshadow="2"
     inkscape:window-width="1920"
     inkscape:window-height="1023"
     id="namedview21"
     showgrid="false"
     inkscape:zoom="3.5881183"
     inkscape:cx="120.37235"
     inkscape:cy="27.382904"
     inkscape:window-x="-5"
     inkscape:window-y="-5"
     inkscape:window-maximized="1"
     inkscape:current-layer="layer1"
     inkscape:snap-page="true" />
  <defs
     id="defs4" />
  <g
     id="layer1"
     transform="translate(0,-992.36218)">
    <g
       transform="matrix(1.0056315,0,0,1,45.320797,990.36218)"
       id="g3083">
      <path
         d="M 59.345,29.346 C 59.345,44.452 47.108,56.692 32,56.692 16.892,56.692 4.653,44.452 4.653,29.346 4.653,14.24 16.893,2 32,2 47.107,2 59.345,14.24 59.345,29.346 z"
         id="path3055"
         style="fill:#ffdd67"
         inkscape:connector-curvature="0" />
      <g
         id="g3057"
         style="fill:#917524">
        <path
           d="M 48.04,10.664 C 44.701,8.725 40.672,8.371 37.047,9.703 36.546,9.896 35.75,8.06 36.359,7.828 c 4.18,-1.536 8.832,-1.131 12.684,1.109 0.561,0.336 -0.545,2.01 -1,1.727"
           id="path3059"
           inkscape:connector-curvature="0" />
        <path
           d="m 24.93,14.01 c -3.337,-1.939 -7.367,-2.293 -10.994,-0.962 -0.499,0.195 -1.297,-1.641 -0.687,-1.874 4.181,-1.536 8.833,-1.13 12.685,1.11 0.559,0.334 -0.544,2 -1,1.726"
           id="path3061"
           inkscape:connector-curvature="0" />
      </g>
      <path
         d="M 39.605,37.776 H 24.393 c -0.796,0 -0.796,-2.735 0,-2.735 h 15.213 c 0.796,0 0.796,2.735 -0.001,2.735"
         id="path3063"
         style="fill:#664e27"
         inkscape:connector-curvature="0" />
      <circle
         cx="21.444"
         cy="21.17"
         r="7.342"
         id="circle3065"
         style="fill:#ffffff"
         d="m 28.786,21.17 c 0,4.054875 -3.287125,7.342 -7.342,7.342 -4.054874,0 -7.342,-3.287125 -7.342,-7.342 0,-4.054875 3.287126,-7.342 7.342,-7.342 4.054875,0 7.342,3.287125 7.342,7.342 z"
         sodipodi:cx="21.444"
         sodipodi:cy="21.17"
         sodipodi:rx="7.342"
         sodipodi:ry="7.342" />
      <circle
         cx="23.447001"
         cy="18.17"
         r="3.671"
         id="circle3067"
         style="fill:#664e27"
         d="m 27.118001,18.17 c 0,2.027437 -1.643563,3.671 -3.671,3.671 -2.027438,0 -3.671001,-1.643563 -3.671001,-3.671 0,-2.027437 1.643563,-3.671 3.671001,-3.671 2.027437,0 3.671,1.643563 3.671,3.671 z"
         sodipodi:cx="23.447001"
         sodipodi:cy="18.17"
         sodipodi:rx="3.671"
         sodipodi:ry="3.671" />
      <circle
         cx="42.554001"
         cy="21.17"
         r="7.342"
         id="circle3069"
         style="fill:#ffffff"
         d="m 49.896001,21.17 c 0,4.054875 -3.287126,7.342 -7.342,7.342 -4.054875,0 -7.342,-3.287125 -7.342,-7.342 0,-4.054875 3.287125,-7.342 7.342,-7.342 4.054874,0 7.342,3.287125 7.342,7.342 z"
         sodipodi:cx="42.554001"
         sodipodi:cy="21.17"
         sodipodi:rx="7.342"
         sodipodi:ry="7.342" />
      <circle
         cx="44.556999"
         cy="18.17"
         r="3.6719999"
         id="circle3071"
         style="fill:#664e27"
         d="m 48.228999,18.17 c 0,2.02799 -1.64401,3.672 -3.672,3.672 -2.027989,0 -3.672,-1.64401 -3.672,-3.672 0,-2.027989 1.644011,-3.672 3.672,-3.672 2.02799,0 3.672,1.644011 3.672,3.672 z"
         sodipodi:cx="44.556999"
         sodipodi:cy="18.17"
         sodipodi:rx="3.6719999"
         sodipodi:ry="3.6719999" />
      <path
         d="m 40.949,40.836 c -4.258,1.83 -15.238,5.086 -17.66,3.396 -1.087,-0.761 -1.145,-2.177 -1.251,-4.604 -0.106,-2.395 -2.852,-4.567 -4.583,-4.484 -2.073,0.098 -2.986,1.763 -1.908,3.75 2.369,4.357 -0.375,6.367 0.076,9.835 0.26,2.01 0.199,5.417 3.965,9.138 4.258,4.208 10.295,3.221 12.358,2.79 2.434,-0.507 3.447,-0.776 3.832,-1.973 0.426,-1.324 0.086,-1.573 0.273,-2.058 0.41,-1.059 0.722,-0.991 0.799,-2.121 0.084,-1.23 -0.877,-1.747 -0.768,-2.357 0.222,-1.271 1.311,-1.285 -0.244,-3.973 3.498,-1.156 5.748,-2.113 7.662,-3.668 3.468,-2.812 -0.292,-4.644 -2.551,-3.671"
         id="path3073"
         style="fill:#ffffff"
         inkscape:connector-curvature="0" />
      <path
         d="m 28.1,62 c -3.729,0 -6.923,-1.21 -9.238,-3.498 -3.587,-3.544 -3.928,-6.812 -4.152,-8.974 -0.025,-0.244 -0.05,-0.474 -0.077,-0.688 -0.195,-1.502 0.132,-2.721 0.446,-3.902 0.467,-1.744 0.869,-3.25 -0.422,-5.627 -0.702,-1.293 -0.747,-2.604 -0.124,-3.598 0.559,-0.89 1.606,-1.434 2.874,-1.493 0.018,-10e-4 0.132,-0.004 0.148,-0.004 2.313,0 5.357,2.531 5.484,5.374 0.102,2.314 0.18,3.431 0.854,3.902 0.122,0.085 0.532,0.285 1.685,0.285 4.101,0 11.796,-2.425 14.952,-3.782 0.53,-0.229 1.143,-0.349 1.769,-0.349 1.607,0 2.994,0.752 3.449,1.873 0.273,0.674 0.431,2.049 -1.586,3.686 -1.875,1.522 -4.01,2.481 -6.939,3.49 0.688,1.502 0.463,2.214 0.075,2.999 -0.093,0.189 -0.169,0.344 -0.212,0.534 0.031,0.065 0.101,0.177 0.153,0.262 0.271,0.437 0.678,1.097 0.611,2.074 -0.058,0.847 -0.237,1.209 -0.505,1.666 -0.109,0.188 -0.223,0.38 -0.351,0.709 -0.007,0.028 -10e-4,0.12 0.003,0.188 0.018,0.346 0.047,0.869 -0.26,1.822 -0.572,1.779 -2.25,2.129 -4.57,2.611 C 30.75,61.856 29.42,62 28.1,62 M 17.555,36.069 c -0.463,0.021 -1.018,0.136 -1.293,0.575 -0.277,0.441 -0.211,1.109 0.182,1.833 1.623,2.989 1.067,5.069 0.576,6.905 -0.284,1.065 -0.553,2.072 -0.402,3.236 0.029,0.228 0.055,0.471 0.082,0.731 0.211,2.026 0.5,4.802 3.621,7.884 1.955,1.934 4.572,2.913 7.779,2.914 1.17,0 2.357,-0.129 3.629,-0.396 2.429,-0.506 2.891,-0.704 3.094,-1.333 0.208,-0.647 0.191,-0.941 0.178,-1.2 -0.014,-0.24 -0.029,-0.539 0.112,-0.905 0.18,-0.464 0.351,-0.755 0.476,-0.969 0.169,-0.287 0.232,-0.396 0.267,-0.899 0.028,-0.421 -0.139,-0.691 -0.351,-1.034 -0.228,-0.368 -0.511,-0.826 -0.405,-1.416 0.081,-0.467 0.247,-0.803 0.381,-1.073 0.227,-0.458 0.376,-0.761 -0.521,-2.31 -0.137,-0.237 -0.156,-0.519 -0.051,-0.771 0.104,-0.251 0.322,-0.449 0.597,-0.539 3.245,-1.073 5.487,-1.989 7.339,-3.491 0.799,-0.649 1.186,-1.262 1.031,-1.641 -0.224,-0.552 -1.65,-0.863 -2.502,-0.496 -3.106,1.336 -11.188,3.954 -15.795,3.954 -1.309,0 -2.254,-0.216 -2.889,-0.658 -1.46,-1.021 -1.534,-2.711 -1.646,-5.269 -0.084,-1.854 -2.268,-3.632 -3.489,-3.632"
         id="path3075"
         style="fill:#a5b3b2"
         inkscape:connector-curvature="0" />
    </g>
    <text
       x="5.2962723"
       y="1022.7928"
       transform="scale(0.97190193,1.0289104)"
       id="text3096"
       xml:space="preserve"
       style="font-size:96.54654694px;font-style:normal;font-weight:normal;line-height:125%;letter-spacing:0px;word-spacing:0px;fill:#d35f32;fill-opacity:0.62184879;stroke:none;font-family:Sans"
       sodipodi:linespacing="125%"><tspan
         x="5.2962723"
         y="1022.7928"
         id="tspan3098"
         style="font-style:normal;font-variant:normal;font-weight:500;font-stretch:normal;fill:#d35f32;fill-opacity:0.62184879;font-family:TlwgMono;-inkscape-font-specification:TlwgMono Medium">4</tspan></text>
    <text
       x="97.898201"
       y="1022.7928"
       transform="scale(0.97190193,1.0289104)"
       id="text3096-1"
       xml:space="preserve"
       style="font-size:96.54654694px;font-style:normal;font-weight:normal;line-height:125%;letter-spacing:0px;word-spacing:0px;fill:#d35f32;fill-opacity:0.62184879;stroke:none;font-family:Sans"
       sodipodi:linespacing="125%"><tspan
         x="97.898201"
         y="1022.7928"
         id="tspan3098-1"
         style="font-style:normal;font-variant:normal;font-weight:500;font-stretch:normal;fill:#d35f32;fill-opacity:0.62184879;font-family:TlwgMono;-inkscape-font-specification:TlwgMono Medium">4</tspan></text>
    <text
       xml:space="preserve"
       style="font-size:75.00585938px;font-style:normal;font-weight:normal;line-height:125%;letter-spacing:0px;word-spacing:0px;fill:#d45f32;fill-opacity:0.62352941;stroke:none;font-family:Sans"
       x="232.10564"
       y="626.87354"
       id="text3015"
       sodipodi:linespacing="125%"
       transform="scale(0.59254628,1.6876319)"><tspan
         sodipodi:role="line"
         id="tspan3017"
         x="232.10564"
         y="626.87354"
         style="font-style:normal;font-variant:normal;font-weight:500;font-stretch:normal;font-family:TlwgMono;-inkscape-font-specification:TlwgMono Medium">&gt;</tspan></text>
    <text
       xml:space="preserve"
       style="font-size:75.00585938px;font-style:normal;font-weight:normal;line-height:125%;letter-spacing:0px;word-spacing:0px;fill:#d45f32;fill-opacity:0.62352941;stroke:none;font-family:Sans"
       x="-5.4004221"
       y="626.87354"
       id="text3019"
       sodipodi:linespacing="125%"
       transform="scale(0.59254628,1.6876319)"><tspan
         sodipodi:role="line"
         id="tspan3021"
         x="-5.4004221"
         y="626.87354"
         style="font-style:normal;font-variant:normal;font-weight:500;font-stretch:normal;font-family:TlwgMono;-inkscape-font-specification:TlwgMono Medium">&lt;</tspan></text>
  </g>
</svg>
